
        <svg width="1287" height="128" viewBox="0 0 1287 128" fill="none" xmlns="http://www.w3.org/2000/svg">
            <path d="M49.5892 14.0429C24.2321 14.0429 25.8357 25.0071 25.8357 25.0071V36.4H49.9499V39.9714H16.2321C16.2321 39.9714 0 37.9714 0 63.7035C0 89.4356 14.3321 88.3892 14.3321 88.3892H22.6071V76.3856C22.6071 76.3856 22.1428 62.0535 36.5357 62.0535H60.6856C60.6856 62.0535 74.157 62.2678 74.157 49.0107V27.2571C74.157 27.2571 76.1999 14 49.7214 14L49.5892 14.0429ZM36.2607 21.675C37.1179 21.6534 37.9624 21.8864 38.6872 22.3448C39.412 22.8031 39.9846 23.466 40.3327 24.2498C40.6807 25.0336 40.7884 25.9029 40.6423 26.748C40.4963 27.593 40.1028 28.3757 39.5119 28.9971C38.9209 29.6186 38.159 30.0508 37.3223 30.2391C36.4857 30.4275 35.6121 30.3635 34.8118 30.0553C34.0115 29.7471 33.3206 29.2085 32.8265 28.5077C32.3323 27.8068 32.0571 26.9751 32.0357 26.1178V26.0464C32.0357 24.8965 32.4925 23.7937 33.3056 22.9806C34.1187 22.1675 35.2215 21.7107 36.3714 21.7107L36.2607 21.675Z" fill="url(#paint0_linear_501_836)" />
            <path d="M50.3036 113.364C75.6607 113.364 74.0572 102.364 74.0572 102.364V91.007H49.9465V87.4356H83.7678C83.7678 87.4356 100 89.2499 100 63.6678C100 38.0857 85.6678 38.9821 85.6678 38.9821H77.2857V50.8285C77.2857 50.8285 77.75 65.1606 63.3572 65.1606H39.1965C39.1965 65.1606 25.7144 64.9571 25.7144 78.2142V100.114C25.7144 100.114 23.6715 113.371 50.15 113.371H50.2929L50.3036 113.364ZM63.6322 105.696C62.7749 105.718 61.9304 105.485 61.2056 105.027C60.4808 104.568 59.9082 103.905 59.5602 103.121C59.2122 102.338 59.1044 101.468 59.2505 100.623C59.3966 99.7783 59.79 98.9956 60.3809 98.3742C60.9719 97.7527 61.7339 97.3205 62.5705 97.1321C63.4071 96.9438 64.2808 97.0077 65.081 97.3159C65.8813 97.6241 66.5722 98.1627 67.0663 98.8636C67.5605 99.5645 67.8357 100.396 67.8572 101.253V101.361C67.8572 102.51 67.4004 103.613 66.5873 104.426C65.7742 105.24 64.6714 105.696 63.5214 105.696H63.6286H63.6322Z" fill="url(#paint1_linear_501_836)" />
            <path d="M196.949 94.9714C196.949 95.5712 197.699 94.9714 196.949 94.9714V94.9714ZM180.206 81.4768C182.155 82.3264 178.657 78.4779 180.206 81.4768V81.4768ZM155.066 82.8762C155.816 84.1757 155.066 82.2764 155.066 82.8762V82.8762ZM183.055 84.8254C181.706 82.7263 182.055 85.1253 183.055 86.4248C185.454 88.7739 183.955 85.1253 183.055 84.8254Z" fill="black" />
            <path d="M229.237 98.8199C226.588 101.969 224.239 98.47 221.09 99.4696C215.592 99.4696 221.54 96.9706 221.39 94.4716C218.491 92.2225 215.192 97.5204 213.293 98.9698C208.683 98.1739 204.197 96.7793 199.948 94.8215C195 92.5108 190.577 89.2109 186.953 85.1253C182.898 81.0841 179.717 76.2527 177.607 70.9309C174.91 61.6034 173.497 51.9516 173.409 42.2423C173.759 35.7448 180.606 42.942 183.405 40.5929C182.355 37.2442 176.957 36.1947 173.959 34.7952C171.06 34.7952 170.01 32.0463 166.961 31.8464C166.961 28.1978 161.314 30.197 159.164 27.648C161.264 22.2502 152.317 27.648 153.017 23.0998C155.916 17.1022 144.12 18.1018 149.018 23.3997C153.767 26.0986 144.37 28.0479 147.119 29.8472C147.352 30.2987 147.463 30.8027 147.444 31.3102C147.424 31.8177 147.274 32.3115 147.008 32.7439C146.741 33.1762 146.368 33.5324 145.923 33.778C145.478 34.0236 144.978 34.1501 144.47 34.1455C140.772 34.4953 141.122 39.5933 144.77 36.8944C148.818 35.6449 145.47 37.4442 143.521 37.794C142.492 37.9504 141.516 38.3516 140.675 38.9638C139.833 39.576 139.151 40.3812 138.686 41.3119C138.221 42.2425 137.986 43.2712 138.001 44.3116C138.016 45.352 138.28 46.3735 138.772 47.2903C140.725 52.9003 142.393 58.6053 143.77 64.3835C146.855 73.1426 151.42 81.3078 157.265 88.524C160.339 92.3816 163.979 95.7517 168.061 98.52C171.809 101.102 175.896 103.154 180.206 104.618C187.889 106.881 195.839 108.108 203.847 108.266C208.704 108.293 213.554 107.892 218.341 107.067C222.689 107.516 225.788 103.818 229.637 105.767C232.036 103.668 235.434 104.618 237.783 103.068C239.383 96.9706 231.686 101.719 229.237 98.8199ZM220.54 95.1213C219.441 95.1213 220.79 93.422 220.54 95.1213V95.1213ZM182.405 40.1431C181.905 40.1431 182.005 39.5433 181.606 39.3934C177.607 37.5441 183.555 38.2438 182.405 40.343V40.1431ZM216.192 97.0706C214.443 96.6707 217.591 95.8211 216.192 97.0706V97.0706ZM202.147 97.6204C200.998 97.6204 203.047 96.9206 202.147 97.6204V97.6204ZM192.751 91.7227C192.101 91.7227 192.751 91.0729 192.751 91.7227V91.7227ZM191.652 90.873C189.852 90.873 191.202 89.7235 191.652 90.873V90.873ZM189.552 89.0737C187.903 89.4736 189.552 87.3744 189.552 89.0737V89.0737ZM159.564 30.7968C156.915 29.3973 160.114 32.4461 157.865 32.3962C156.665 32.3962 154.416 29.7972 155.166 28.4977C156.665 29.2974 159.314 29.5473 159.764 30.9967L159.564 30.7968ZM154.966 26.7484H154.416C154.266 25.3989 158.765 26.4485 155.166 26.9483L154.966 26.7484ZM149.868 22.8C147.769 21.8503 149.868 18.1518 152.067 19.9011C154.616 23.5497 147.319 19.5013 149.868 22.8ZM152.317 26.2486C150.968 26.7984 153.117 25.199 152.317 26.2486V26.2486ZM154.716 30.8468C157.715 33.1459 153.017 30.8468 151.118 32.2962C148.069 32.5961 154.416 30.5969 154.716 30.8468ZM155.566 33.8456C157.315 33.8456 164.962 30.3969 162.413 33.4957C164.762 36.2446 162.913 35.345 161.364 33.4957C162.763 34.4453 161.663 38.4937 159.514 35.7448C157.365 32.9959 157.015 34.8452 158.665 36.7944C157.065 33.5457 152.467 34.9451 149.118 36.0447C146.969 35.8448 154.766 34.1954 155.566 33.8456V33.8456ZM145.97 41.0927C145.17 43.0919 147.169 43.7417 149.068 44.0915C152.167 43.2419 147.019 42.6921 149.368 41.8924C150.668 41.8924 145.27 40.5929 149.768 39.9931C154.266 39.3934 158.515 37.3942 163.063 36.4446C166.917 35.5971 170.868 35.2777 174.808 35.4949C176.308 37.2442 173.659 40.1931 170.96 40.493C167.717 41.5361 164.361 42.1904 160.964 42.4422C156.965 41.9424 154.116 45.491 150.018 45.9408C151.118 43.9416 149.118 45.2411 147.069 45.1411C148.119 49.2395 139.722 44.0915 144.67 43.0919C140.972 41.7924 140.922 45.6909 141.321 48.0899C138.073 43.5417 141.671 41.6425 145.97 41.0927V41.0927ZM155.366 46.4906C154.266 46.2407 156.216 45.491 155.366 46.4906V46.4906ZM151.767 50.8888C151.767 50.8888 150.068 50.489 150.768 50.0392C155.766 50.6889 146.269 48.3898 151.417 48.9396C154.716 48.8396 153.617 50.7389 151.767 50.8888ZM153.417 51.7385C152.817 52.3383 153.417 50.539 153.417 51.7385V51.7385ZM149.868 51.7385C147.669 51.2887 150.918 50.6389 149.868 51.7385V51.7385ZM149.568 58.8857C149.218 59.3855 149.068 58.4858 149.568 58.8857V58.8857ZM148.069 58.036C145.32 57.0864 148.069 56.9864 148.069 58.036V58.036ZM147.469 64.4335C146.17 63.9837 146.22 61.9345 145.62 60.8349C143.72 55.6869 147.669 62.8341 147.269 64.4335H147.469ZM148.619 56.9864C145.17 56.5866 148.369 54.5374 148.619 56.9864V56.9864ZM148.619 55.2871H148.169C144.37 53.5378 150.418 54.4374 148.069 55.2871H148.619ZM148.069 51.3387C145.02 49.7893 150.968 49.5394 148.069 51.3387V51.3387ZM149.118 52.6381C147.419 52.938 149.368 51.0388 149.118 52.6381V52.6381ZM142.621 52.988C142.021 53.3879 142.621 51.8385 142.621 52.988V52.988ZM143.071 52.2883C142.271 52.2883 143.071 50.9388 143.071 52.2883V52.2883ZM143.471 47.2903C141.471 46.7905 145.12 46.0408 143.471 47.2903V47.2903ZM144.77 57.2863C142.571 56.7865 144.17 54.0376 144.77 57.2863V57.2863ZM146.269 63.5338C148.369 66.0828 147.569 67.4823 149.718 70.581C146.919 68.8317 146.369 64.5834 144.72 61.8345C142.671 57.3363 145.87 61.7845 146.269 63.5338V63.5338ZM166.711 95.4212C165.012 95.0714 163.863 93.2721 162.663 92.1225C159.251 89.6252 156.547 86.2839 154.816 82.4264C151.939 78.7521 149.49 74.7611 147.519 70.5311C145.47 65.9329 148.769 70.8809 149.268 72.6302C150.318 76.0289 153.667 77.9781 153.966 80.2272C157.665 82.3264 155.766 85.825 158.964 86.7746C160.314 86.0749 160.464 90.973 163.413 89.9734C161.763 90.7231 164.062 91.6227 164.912 93.0222C166.661 92.7723 170.76 97.1206 166.711 95.6211V95.4212ZM151.168 63.5338C149.618 63.184 152.817 62.9841 151.168 63.5338V63.5338ZM152.167 65.8829C149.418 65.1832 154.766 64.8833 152.167 65.8829V65.8829ZM159.114 68.232C161.114 67.3823 159.914 72.1304 161.863 72.7302C165.662 77.7282 159.214 72.7302 156.865 72.3803C157.165 72.3803 154.966 71.7806 155.916 71.5807C155.216 70.8309 153.667 68.282 157.215 69.9813C160.214 71.1808 160.464 70.2812 159.114 68.0321V68.232ZM165.662 77.0285C165.662 77.7782 162.063 77.6782 165.362 79.1277C163.463 79.1277 162.863 79.1277 165.362 80.6271C164.262 81.4767 167.511 82.1765 166.412 83.4759C169.71 86.0749 165.812 84.1257 164.412 83.0761C163.013 82.0265 160.164 81.3268 160.664 80.5771C164.712 82.6763 161.713 80.5771 159.914 79.0777C163.163 79.8774 157.365 76.6786 160.414 77.5283C161.364 77.7782 159.064 75.6291 162.063 77.1784C159.364 74.5795 164.412 76.5787 165.662 76.8286V77.0285ZM168.061 76.1788C165.012 75.4791 168.061 74.4795 168.061 76.1788V76.1788ZM167.211 86.1749C164.162 84.8754 169.16 86.1749 167.211 86.1749V86.1749ZM164.962 85.3252C161.414 84.1757 167.561 85.3252 164.962 85.3252V85.3252ZM164.512 85.875C163.413 85.875 164.512 85.0253 164.512 85.875V85.875ZM159.114 78.1281C155.516 76.6287 158.115 76.4787 159.114 78.1281V78.1281ZM156.415 76.3788C153.517 74.7294 156.016 74.7294 156.415 76.3788V76.3788ZM156.415 79.6275C153.567 77.4283 156.066 78.378 156.415 79.6275V79.6275ZM155.666 72.9301C153.916 72.9301 156.316 71.9305 155.666 72.9301V72.9301ZM168.061 90.4232C165.512 89.6735 168.061 89.7235 168.061 90.4232V90.4232ZM166.212 88.524H165.412C162.013 85.825 166.961 86.6247 169.16 87.8242C174.009 88.524 168.061 89.7735 166.212 88.524V88.524ZM179.706 96.7707C176.308 95.971 180.506 95.4212 179.706 96.7707V96.7707ZM178.857 94.1717C178.607 94.1717 178.357 93.6219 178.857 94.1717V94.1717ZM174.558 87.4744C171.609 86.7746 175.608 86.5247 176.358 87.4744C181.456 88.524 176.058 88.7739 174.558 87.4744ZM175.608 93.522H175.058L174.408 93.2221C171.609 90.2733 180.356 94.6215 175.608 93.522ZM174.208 96.9706C173.459 97.2705 174.208 96.2709 174.208 96.9706V96.9706ZM175.658 91.023L174.858 90.7731C171.559 88.524 179.057 91.2229 175.658 90.7731V91.023ZM176.458 99.6196C174.458 98.8199 177.757 98.3701 176.458 99.6196V99.6196ZM176.957 95.921C174.058 95.2213 178.757 95.2713 176.957 95.921V95.921ZM177.607 92.8722C175.408 92.5724 177.857 91.8227 177.607 92.8722V92.8722ZM174.009 88.474C176.308 88.7739 176.358 89.8234 174.009 89.1737C173.559 89.1737 172.809 89.1737 172.609 88.324C168.811 85.825 172.759 87.0745 174.009 88.2241V88.474ZM173.709 98.47C172.709 99.0698 173.709 97.3705 173.709 98.47V98.47ZM172.159 95.921C169.51 95.921 174.158 94.6215 172.159 95.921V95.921ZM171.559 97.6703C170.26 97.1705 172.409 97.2705 171.559 97.6703V97.6703ZM173.059 93.2221C170.46 92.5224 174.308 92.3225 173.059 93.2221V93.2221ZM172.259 90.3732C170.86 90.3732 171.959 89.5735 172.259 90.3732V90.3732ZM169.56 85.6251C166.711 83.326 175.458 87.5243 169.56 85.6251V85.6251ZM169.26 86.5747C169.26 86.8746 168.711 86.1249 169.26 86.5747V86.5747ZM187.503 105.467C183.056 104.674 178.747 103.243 174.708 101.219L173.059 100.219C170.21 98.6699 170.56 98.3201 173.359 99.8695C174.308 100.669 181.306 103.518 178.007 101.619C176.558 101.269 168.511 96.8706 173.809 98.7699C178.223 101.11 182.8 103.131 187.503 104.818C191.479 105.761 195.587 106.014 199.648 105.567C202.897 107.217 206.296 105.167 209.644 106.617C202.22 107.512 194.696 107.123 187.403 105.467H187.503ZM181.256 101.969C178.707 101.519 182.055 100.819 181.256 101.969V101.969ZM184.904 96.9706C182.005 96.4208 187.903 95.8211 184.904 96.9706V96.9706ZM189.103 103.518C194.101 105.367 186.104 104.118 184.454 103.068C179.856 101.169 188.053 103.518 189.103 103.518ZM183.805 98.0202C179.756 97.4204 188.303 98.0202 183.805 98.0202V98.0202ZM191.402 102.269C189.952 103.418 191.402 100.769 191.402 102.269V102.269ZM192.851 102.518C192.101 102.818 192.851 101.669 192.851 102.518V102.518ZM194.201 100.619C193.401 101.619 194.201 99.4696 194.201 100.619V100.619ZM195.75 100.619C193.501 101.469 198.099 98.6699 195.75 100.619V100.619ZM196.45 100.619C198.899 98.52 198.999 99.5196 198.949 101.269C196.799 103.668 198.099 100.269 196.75 101.569C195.4 102.868 195.8 101.069 196.45 100.719V100.619ZM200.598 102.868C198.099 102.868 203.147 100.169 200.598 102.868V102.868ZM200.598 103.768C199.598 104.018 200.598 103.118 200.598 103.768V103.768ZM199.798 102.019C197.849 100.719 204.496 98.9698 199.798 102.019V102.019ZM202.647 102.468H202.247C202.097 101.319 204.946 101.119 202.647 102.568V102.468ZM203.397 103.418C201.897 103.018 205.746 101.419 203.397 103.418V103.418ZM205.196 102.918C202.647 103.818 207.595 100.919 205.196 102.918V102.918ZM206.296 103.468L205.696 103.868C204.546 103.168 209.245 101.469 206.296 103.518V103.468ZM204.147 100.819C201.448 99.9194 197.149 97.0206 194.151 98.9698C190.152 101.519 196.2 96.1709 192.951 98.57C189.652 102.518 190.702 96.071 187.503 98.0202C187.503 97.4204 184.654 97.2205 186.654 96.1709C184.854 96.1709 186.004 95.921 186.654 94.4716C185.854 94.4716 181.655 94.4716 179.856 93.0222C177.857 90.4232 180.206 91.5228 182.255 91.8726C178.907 92.4724 183.455 94.3716 185.654 93.322C184.654 92.8722 183.505 90.7231 180.656 88.8238C177.215 86.9375 173.659 85.2682 170.01 83.8258C165.812 81.3268 170.91 82.9262 172.359 84.2256C176.558 86.0749 174.908 81.6767 172.359 80.5271C169.66 80.5271 169.01 77.5783 166.861 77.7282C170.21 78.278 172.559 76.8786 168.811 73.4799C165.062 70.0812 170.31 76.6287 168.261 75.679C167.311 74.4295 168.011 72.6802 165.012 72.0305C165.012 73.18 164.612 74.9293 163.962 72.5303C163.113 72.5303 162.163 73.5799 161.463 71.1308C162.113 68.282 158.665 67.6322 158.115 65.8329C161.114 67.7322 162.463 66.2328 160.364 64.1836C158.265 62.1344 158.715 63.6338 157.915 64.1836C154.966 67.1824 157.615 59.1856 156.316 61.3847C155.016 61.3847 155.766 62.8341 155.816 64.6334C151.517 63.5838 156.815 66.8825 158.065 68.6818C156.116 66.6826 156.465 70.2312 154.816 68.6818C154.266 67.1824 154.216 64.8333 151.467 64.4335C154.566 63.3339 149.668 61.1848 150.068 61.0848C151.817 59.4854 152.067 57.2863 154.166 60.7349C151.517 60.7349 154.166 65.1332 154.766 63.7338C154.766 61.3847 155.866 58.7357 151.817 57.7861C150.618 59.3855 148.569 54.6374 150.918 55.637C150.618 52.4882 154.616 54.3375 154.366 52.988C156.465 52.0884 151.867 49.1395 154.366 47.99C156.266 49.1895 161.164 46.1907 157.865 45.7909C159.964 45.7909 161.613 46.6905 161.813 44.5913C163.463 44.9412 168.011 46.3906 163.913 44.1415C165.711 43.41 167.621 42.9875 169.56 42.892C173.509 39.8432 172.709 47.89 171.809 50.1391C173.309 49.0895 173.009 54.8373 172.509 56.9864C173.309 55.8869 173.659 58.7857 172.509 60.8349C172.509 60.485 174.508 60.1852 173.109 62.5842C172.009 60.2351 171.559 67.5822 172.259 64.1836C174.108 61.1348 173.659 64.1836 174.208 65.3831C174.608 68.132 175.808 70.681 176.208 73.18C177.957 74.9293 175.458 73.7298 175.458 76.1289C176.008 75.4291 178.357 77.0785 178.307 79.5275C178.307 75.6291 178.757 78.6279 180.656 79.5275C181.934 82.1439 183.621 84.5397 185.654 86.6247C187.503 88.7739 185.654 87.2744 186.354 88.5739C187.587 90.2763 189.145 91.7179 190.938 92.8159C192.73 93.9138 194.723 94.6464 196.799 94.9714C197.569 96.3096 198.743 97.3693 200.153 97.998C201.563 98.6266 203.137 98.7919 204.646 98.47C201.648 100.319 213.043 100.819 209.195 101.819C208.045 102.618 206.096 100.819 204.147 100.919V100.819ZM171.559 82.9761C170.36 82.9761 171.559 81.9765 171.559 82.9761V82.9761ZM173.459 84.0757C172.559 84.0757 172.859 82.8762 173.459 84.0757V84.0757ZM160.414 65.8329C159.214 65.4831 160.914 65.3831 160.414 65.8329V65.8329ZM157.465 65.8329C156.166 65.8329 157.465 64.1336 157.465 65.8329V65.8329ZM155.966 65.4331C155.466 65.683 155.966 64.8833 155.966 65.4331V65.4331ZM210.944 106.667C208.995 106.317 212.543 105.567 210.944 106.667V106.667ZM214.592 101.419H213.093C213.393 99.1697 219.74 100.919 222.339 100.969C221.54 102.668 216.692 101.169 214.592 101.619V101.419ZM224.589 101.419C223.239 101.419 225.188 99.8195 224.589 101.419V101.419ZM229.587 100.969C228.337 101.619 229.587 99.4696 229.587 100.969V100.969ZM231.986 101.519C229.387 100.919 233.185 100.919 233.985 100.819C238.683 100.919 233.985 101.619 231.636 101.619L231.986 101.519Z" fill="black" />
            <path d="M160.614 39.0935C165.612 38.0939 158.715 37.4441 157.165 39.0935C158.065 39.7432 159.214 38.0439 160.614 39.0935ZM156.516 39.7432C156.516 40.6928 157.415 38.6436 156.516 39.7432V39.7432ZM169.61 37.3442C172.959 36.7944 170.16 35.295 169.161 37.844C169.51 38.5437 169.71 37.5941 169.61 37.3442ZM166.512 37.844C171.16 39.6432 166.262 32.8459 166.512 37.844V37.844ZM151.917 42.4921C152.508 42.4622 153.092 42.6389 153.567 42.9919C157.315 45.5909 153.067 38.7936 151.917 42.4921Z" fill="black" />
            <path d="M152.117 40.6928C152.917 41.3426 153.567 39.6433 152.117 40.6928V40.6928ZM153.967 40.7428L154.666 41.3426C158.065 41.6425 154.117 39.0435 153.967 40.7428ZM181.506 83.5259C181.956 85.0253 181.506 81.5767 181.506 83.5259V83.5259ZM157.615 58.5358C158.115 59.4354 158.515 57.6361 157.615 58.5358V58.5358ZM158.065 61.5846C159.015 63.2839 158.065 59.0356 158.065 61.5846V61.5846ZM159.115 59.1355C160.764 60.1851 157.715 56.5366 159.115 59.1355V59.1355ZM157.065 55.0372C157.415 55.7869 158.265 55.8369 158.915 56.0368C165.512 59.0856 154.167 51.0388 157.065 55.0372ZM159.764 62.1843C161.314 64.8333 160.664 60.3351 159.764 62.1843V62.1843ZM162.163 61.3847C164.013 65.9828 161.014 60.7849 160.664 59.2355C160.707 60.9921 161.188 62.7101 162.063 64.2335C163.763 66.7825 163.013 62.8341 164.812 65.3831C163.813 63.134 165.312 64.3835 165.112 63.3839C164.912 62.3843 160.114 57.5362 162.163 61.3847ZM163.963 70.2811C164.412 71.8305 164.862 70.2811 163.963 70.2811V70.2811ZM157.315 48.5397C157.615 49.2395 157.865 48.5397 157.315 48.5397V48.5397ZM160.664 50.6389C162.263 52.6881 161.514 48.8396 160.664 50.6389V50.6389ZM156.216 56.3367L156.915 57.0864C161.863 58.5358 151.667 52.3382 156.216 56.3367ZM159.714 54.4874C164.712 56.5366 159.264 53.1379 157.515 53.4878C158.065 54.1375 159.115 53.8376 159.714 54.4874ZM158.815 52.2883C159.714 53.1879 162.913 54.8373 160.364 52.5881C161.963 52.2883 160.364 51.7885 159.165 50.9888C156.965 47.6401 159.514 51.2887 158.815 52.2883V52.2883Z" fill="black" />
            <path d="M155.616 56.7365C152.967 54.5374 156.416 57.7861 155.316 57.7361C152.567 55.7369 153.717 57.1864 155.316 58.7357C156.966 61.2348 158.315 57.2363 155.616 56.7365V56.7365ZM166.312 59.9353C166.912 60.4851 166.012 56.5366 166.312 59.9353V59.9353ZM171.41 42.4422C171.41 43.042 171.76 41.9424 171.41 42.4422V42.4422ZM173.059 65.8829C173.059 66.9325 173.059 64.9833 173.059 65.8829V65.8829ZM171.61 59.7853C172.01 62.0844 172.11 55.8869 171.61 59.7853V59.7853ZM172.31 60.8849V61.3847C173.359 58.8357 172.509 57.4363 172.31 60.8849ZM171.81 47.3902C171.11 50.8889 170.46 49.4394 171.41 46.8405C171.16 43.4918 169.161 48.8896 170.06 50.439C171.51 52.7881 173.059 44.6413 171.81 47.3902V47.3902ZM176.858 77.2784C177.507 79.0277 177.408 75.1792 176.858 77.2784V77.2784ZM170.11 55.8869C170.11 56.8865 170.11 55.1872 170.11 55.8869V55.8869ZM173.309 64.3835C173.309 65.683 173.859 62.4843 173.309 64.3835V64.3835ZM175.558 73.5299L175.908 74.0797C176.608 71.6306 174.109 70.1312 175.558 73.5299ZM167.761 70.9309C169.111 72.0305 167.112 69.7814 167.761 70.9309V70.9309ZM173.909 66.6826C174.309 68.132 173.909 64.5834 173.909 66.6826V66.6826ZM168.761 52.5882C169.511 54.2375 168.511 51.2387 168.761 52.5882V52.5882Z" fill="black" />
            <path d="M169.56 54.6874C170.76 56.3867 168.261 51.4886 169.56 54.6874V54.6874ZM169.26 60.4351C168.611 55.4371 167.161 62.6842 169.26 63.8837C169.91 65.583 170.51 64.8833 170.76 62.9341C169.16 62.9341 171.16 59.8353 169.26 60.4351Z" fill="black" />
            <path d="M321.401 0H342.481V96.5923C333.483 98.439 324.324 99.3917 315.139 99.4365C289.397 99.4099 276 87.9107 276 65.8267C276 44.5614 290.211 30.739 312.236 30.739C315.325 30.6787 318.408 31.0364 321.401 31.8023V0V0ZM321.401 48.6018C319.11 47.8459 316.706 47.4863 314.293 47.5386C303.661 47.5386 297.478 54.0404 297.478 65.4333C297.478 76.5285 303.363 82.6529 314.161 82.6529C316.584 82.6523 319.004 82.4746 321.401 82.1213V48.6284V48.6018Z" fill="#44B78B" />
            <path d="M375.973 32.2116V80.5901C375.973 97.2462 374.724 105.253 371.066 112.158C367.334 119.18 361.23 124.649 353.842 127.592L334.288 118.379C341.392 115.946 347.341 110.966 350.987 104.402C353.996 98.4424 354.947 91.5365 354.947 73.3706V32.2116H375.973ZM354.926 0.106323H376V21.5205H354.926V0.106323Z" fill="#44B78B" />
            <circle cx="547" cy="64" r="50" fill="#D59999" />
            <path d="M587.323 86.7465C586.196 87.1727 584.952 87.1717 583.826 86.7439C582.7 86.316 581.769 85.4908 581.21 84.4239L570.081 69.0336L568.468 66.882L555.555 84.4433C555.029 85.4654 554.149 86.261 553.079 86.6813C552.009 87.1016 550.823 87.1179 549.742 86.7271L566.381 64.4046L550.903 44.24C552.016 43.839 553.233 43.8337 554.35 44.225C555.466 44.6163 556.413 45.3803 557.032 46.3884L568.568 61.9691L580.168 46.4529C580.698 45.449 581.578 44.6748 582.641 44.2775C583.705 43.8803 584.877 43.8876 585.935 44.2981L579.929 52.2691L571.794 62.8594C571.568 63.0609 571.387 63.3079 571.263 63.5842C571.139 63.8605 571.075 64.1599 571.075 64.4626C571.075 64.7654 571.139 65.0647 571.263 65.341C571.387 65.6173 571.568 65.8643 571.794 66.0658L587.29 86.7497L587.323 86.7465ZM509.91 64.1271L511.265 57.4336C514.987 44.1981 530.161 38.6916 540.6 46.8852C546.713 51.6884 548.239 58.4884 547.939 66.1529H513.503C512.945 79.84 522.823 88.1046 535.452 83.882C537.499 83.145 539.331 81.9118 540.785 80.2927C542.239 78.6736 543.268 76.7192 543.781 74.6046C544.448 72.4562 545.548 72.0884 547.568 72.7078C547.231 75.3284 546.305 77.8385 544.858 80.0494C543.412 82.2604 541.483 84.1145 539.216 85.4723C535.472 87.5201 531.177 88.3318 526.944 87.7912C522.711 87.2507 518.757 85.3856 515.648 82.4626C512.574 79.0026 510.716 74.632 510.358 70.0175C510.358 69.2594 510.1 68.5497 509.926 67.8691C509.91 66.6229 509.903 65.3766 509.903 64.1304L509.91 64.1271ZM513.545 63.2046H544.687C544.494 53.282 538.232 46.2433 529.881 46.1787C520.584 46.0497 513.932 52.9336 513.523 63.1594L513.545 63.2046Z" fill="white" />
            <path d="M438.696 114L436.013 113.111C436.013 113.111 436.371 99.5393 431.46 98.5857C428.246 94.8429 431.935 -61.2035 443.685 98.0536C441.456 99.1844 439.75 101.133 438.924 103.493C438.482 106.978 438.405 110.499 438.696 114V114Z" fill="url(#paint2_linear_501_836)" />
            <path d="M440.146 100.889C447.287 95.5134 452.756 88.2213 455.917 79.8603C459.078 71.4993 459.801 62.4129 458.003 53.6571C452.753 30.4964 440.321 22.8821 438.981 19.975C437.826 18.1647 436.84 16.2519 436.035 14.2607L437.024 78.7928C437.024 78.7928 434.974 98.5143 440.146 100.889Z" fill="url(#paint3_linear_501_836)" />
            <path d="M434.649 101.746C434.649 101.746 412.789 86.8571 414.053 60.5179C414.171 52.5773 415.991 44.7545 419.392 37.5779C422.792 30.4013 427.693 24.038 433.764 18.9179C434.473 18.3152 435.037 17.5596 435.412 16.7078C435.787 15.856 435.965 14.9302 435.931 14C437.292 16.9286 437.071 57.725 437.214 62.4964C437.767 81.0571 436.181 98.2429 434.649 101.746V101.746Z" fill="url(#paint4_linear_501_836)" />
            <g clip-path="url(#clip0_501_836)">
                <path d="M823 119.681C821.447 119.681 819.998 119.267 818.652 118.543L804.884 110.364C802.814 109.226 803.849 108.812 804.47 108.605C807.265 107.673 807.782 107.466 810.681 105.809C810.992 105.602 811.406 105.706 811.716 105.913L822.275 112.228C822.689 112.435 823.207 112.435 823.518 112.228L864.822 88.3148C865.236 88.1078 865.443 87.6937 865.443 87.1762V39.4531C865.443 38.9355 865.236 38.5215 864.822 38.3144L823.518 14.5047C823.104 14.2976 822.586 14.2976 822.275 14.5047L780.971 38.3148C780.557 38.5219 780.35 39.0394 780.35 39.4535V87.1762C780.35 87.5902 780.557 88.1078 780.971 88.3148L792.255 94.8363C798.362 97.9418 802.192 94.3187 802.192 90.6957V43.5937C802.192 42.9726 802.71 42.3516 803.435 42.3516H808.714C809.336 42.3516 809.957 42.8691 809.957 43.5937V90.6953C809.957 98.8734 805.505 103.635 797.741 103.635C795.36 103.635 793.497 103.635 788.218 101.047L777.348 94.8363C774.656 93.2832 773 90.3848 773 87.2793V39.557C773 36.4516 774.656 33.5531 777.348 32L818.652 8.0871C821.24 6.63788 824.76 6.63788 827.348 8.0871L868.652 32C871.344 33.5527 873 36.4512 873 39.557V87.2797C873 90.3852 871.344 93.2836 868.652 94.8363L827.348 118.75C826.002 119.371 824.449 119.682 823 119.682V119.681ZM835.733 86.8652C817.617 86.8652 813.89 78.584 813.89 71.5445C813.89 70.9234 814.408 70.3023 815.132 70.3023H820.515C821.136 70.3023 821.654 70.7164 821.654 71.3375C822.482 76.8238 824.863 79.5156 835.836 79.5156C844.532 79.5156 848.259 77.5488 848.259 72.8906C848.259 70.1988 847.224 68.232 833.663 66.8859C822.379 65.7473 815.339 63.2629 815.339 54.257C815.339 45.8715 822.379 40.9027 834.18 40.9027C847.43 40.9027 853.952 45.4574 854.78 55.3953C854.78 55.7058 854.677 56.0164 854.47 56.3269C854.263 56.534 853.952 56.741 853.642 56.741H848.259C847.741 56.741 847.224 56.3269 847.12 55.8094C845.878 50.116 842.669 48.2527 834.18 48.2527C824.657 48.2527 823.518 51.5652 823.518 54.0496C823.518 57.0519 824.863 57.9832 837.7 59.6394C850.433 61.2957 856.437 63.6769 856.437 72.5797C856.333 81.6894 848.88 86.8652 835.733 86.8652V86.8652Z" fill="#539E43" />
            </g>
            <path d="M735 63.5375C735 56.9125 726.704 50.6333 713.983 46.7417C716.921 33.7792 715.617 23.4625 709.867 20.1583C708.473 19.378 706.897 18.9852 705.3 19.0208V23.5625C706.237 23.5625 706.992 23.75 707.625 24.0958C710.396 25.6875 711.6 31.7375 710.662 39.525C710.437 41.4417 710.071 43.4583 709.621 45.5167C705.361 44.4902 701.038 43.7482 696.679 43.2958C694.083 39.7137 691.25 36.3089 688.2 33.1042C694.846 26.9292 701.083 23.5458 705.325 23.5458V19C699.717 19 692.379 22.9958 684.958 29.925C677.542 23.0417 670.2 19.0833 664.596 19.0833V23.625C668.817 23.625 675.075 26.9917 681.721 33.125C678.867 36.125 676.013 39.525 673.3 43.2958C668.933 43.7432 664.601 44.4922 660.337 45.5375C659.887 43.5866 659.532 41.6148 659.275 39.6292C658.317 31.8375 659.5 25.7875 662.254 24.1792C662.862 23.8125 663.658 23.6458 664.596 23.6458V19.1042C662.887 19.1042 661.333 19.4708 659.992 20.2417C654.262 23.5458 652.979 33.8375 655.933 46.7625C643.254 50.6792 635 56.9333 635 63.5375C635 70.1625 643.296 76.4417 656.017 80.3292C653.079 93.2958 654.383 103.613 660.133 106.913C661.458 107.688 663.008 108.054 664.717 108.054C670.325 108.054 677.663 104.058 685.083 97.1292C692.5 104.017 699.837 107.971 705.446 107.971C707.055 108.005 708.643 107.611 710.05 106.829C715.779 103.529 717.062 93.2375 714.108 80.3125C726.746 76.4208 735 70.1417 735 63.5375ZM708.458 49.9417C707.667 52.6661 706.749 55.3523 705.708 57.9917C704.005 54.6782 702.134 51.4532 700.104 48.3292C703 48.7583 705.792 49.2875 708.462 49.9417H708.458ZM699.125 71.65C697.599 74.3144 695.96 76.9126 694.212 79.4375C688.097 79.9765 681.946 79.9835 675.829 79.4583C672.321 74.4466 669.252 69.1407 666.658 63.6C669.248 58.0463 672.304 52.7217 675.792 47.6833C681.906 47.1432 688.055 47.1348 694.171 47.6583C695.862 50.0833 697.517 52.675 699.104 55.4083C700.654 58.075 702.062 60.7833 703.346 63.5167C702.048 66.2831 700.64 68.9964 699.125 71.65V71.65ZM705.708 69C706.808 71.7292 707.75 74.4625 708.521 77.1125C705.854 77.7667 703.037 78.3167 700.125 78.7417C702.147 75.5892 704.01 72.338 705.708 69V69ZM685.042 90.75C683.146 88.7917 681.25 86.6125 679.375 84.225C681.208 84.3083 683.083 84.3708 684.979 84.3708C686.896 84.3708 688.792 84.3292 690.646 84.225C688.812 86.6125 686.917 88.7917 685.042 90.75ZM669.875 78.7417C667.066 78.3346 664.277 77.7979 661.517 77.1333C662.271 74.5042 663.208 71.7917 664.267 69.0833C665.104 70.7083 665.983 72.3417 666.942 73.975C667.9 75.6042 668.875 77.1958 669.875 78.7417ZM684.937 36.325C686.833 38.2833 688.729 40.4625 690.604 42.85C688.771 42.7667 686.896 42.7042 685 42.7042C683.083 42.7042 681.187 42.7458 679.333 42.85C681.167 40.4625 683.062 38.2833 684.937 36.325ZM669.854 48.3333C667.833 51.4789 665.969 54.7232 664.271 58.0542C663.201 55.3977 662.262 52.6903 661.458 49.9417C664.125 49.3083 666.942 48.7583 669.854 48.3333ZM651.408 73.85C644.192 70.775 639.525 66.7375 639.525 63.5375C639.525 60.3375 644.192 56.2792 651.408 53.225C653.158 52.4708 655.075 51.7958 657.054 51.1667C658.217 55.1583 659.746 59.3167 661.637 63.5792C659.852 67.5883 658.341 71.7145 657.117 75.9292C655.181 75.3298 653.276 74.6359 651.408 73.85V73.85ZM662.375 102.975C659.604 101.392 658.4 95.3333 659.337 87.55C659.562 85.6333 659.929 83.6125 660.379 81.5542C664.371 82.5333 668.733 83.2875 673.321 83.7792C675.917 87.3612 678.75 90.766 681.8 93.9708C675.154 100.146 668.917 103.529 664.675 103.529C663.875 103.538 663.085 103.349 662.375 102.979V102.975ZM710.725 87.4458C711.683 95.2333 710.5 101.287 707.746 102.896C707.137 103.262 706.342 103.425 705.404 103.425C701.183 103.425 694.925 100.062 688.279 93.925C691.316 90.7336 694.13 87.3367 696.7 83.7583C701.067 83.311 705.399 82.5619 709.662 81.5167C710.133 83.575 710.496 85.55 710.725 87.4458V87.4458ZM718.571 73.85C716.821 74.6042 714.904 75.2792 712.925 75.9083C711.679 71.6721 710.148 67.5252 708.342 63.4958C710.217 59.2583 711.721 55.1208 712.862 51.1458C714.804 51.7472 716.716 52.441 718.592 53.225C725.808 56.3 730.475 60.3375 730.475 63.5375C730.454 66.7375 725.787 70.7958 718.571 73.85V73.85Z" fill="black" />
            <path d="M684.979 72.8542C687.45 72.8542 689.82 71.8726 691.567 70.1254C693.314 68.3782 694.296 66.0084 694.296 63.5375C694.296 61.0666 693.314 58.6968 691.567 56.9496C689.82 55.2024 687.45 54.2208 684.979 54.2208C682.508 54.2208 680.138 55.2024 678.391 56.9496C676.644 58.6968 675.662 61.0666 675.662 63.5375C675.662 66.0084 676.644 68.3782 678.391 70.1254C680.138 71.8726 682.508 72.8542 684.979 72.8542V72.8542Z" fill="black" />
            <path d="M920.101 109.07L911 7H1011L1001.89 109.053L960.939 120.406L920.101 109.07Z" fill="#E44F26" />
            <path d="M961 111.731L994.09 102.557L1001.87 15.3475H961V111.731Z" fill="#F1662A" />
            <path d="M961 53.2009H944.434L943.292 40.382H961V27.8627H929.611L929.91 31.2244L932.984 65.7202H961V53.2009V53.2009ZM961 85.7121L960.943 85.7283L947.002 81.9656L946.111 71.9818H933.543L935.297 91.6335L960.943 98.7538L961 98.7376V85.7121Z" fill="#EBEBEB" />
            <path d="M960.955 53.2009V65.7202H976.37L974.92 81.9575L960.955 85.7242V98.7497L986.622 91.6335L986.808 89.5193L989.748 56.5626L990.056 53.2009H960.955V53.2009ZM960.955 27.8627V40.382H991.194L991.445 37.5711L992.016 31.2244L992.316 27.8627H960.955V27.8627Z" fill="white" />
            <path d="M1058.1 109.078L1049 7H1149L1139.89 109.062L1098.94 120.415L1058.1 109.078Z" fill="#1572B6" />
            <path d="M1099 111.739L1132.09 102.565L1139.88 15.3481H1099V111.739Z" fill="#33A9DC" />
            <path d="M1099 52.3297H1115.57L1116.71 39.5097H1099V26.9894H1130.39L1130.09 30.3473L1127.02 64.8499H1099V52.3297V52.3297Z" fill="white" />
            <path d="M1099.08 84.8435L1099.02 84.8597L1085.08 81.0926L1084.19 71.108H1071.62L1073.37 90.7654L1099.02 97.8862L1099.08 97.87V84.8435V84.8435Z" fill="#EBEBEB" />
            <path d="M1114.5 64.3193L1112.99 81.0846L1099.03 84.8516V97.8782L1124.7 90.7654L1124.89 88.651L1127.06 64.3193H1114.5V64.3193Z" fill="white" />
            <path d="M1099.04 26.9894V39.5097H1068.8L1068.55 36.6946L1067.98 30.3473L1067.68 26.9894H1099.04V26.9894ZM1099 52.3297V64.8499H1085.23L1084.98 62.0348L1084.41 55.6876L1084.11 52.3297H1099V52.3297Z" fill="#EBEBEB" />
            <path fill-rule="evenodd" clip-rule="evenodd" d="M1207.77 24C1202.06 24 1197.84 28.9958 1198.03 34.4083C1198.21 39.6167 1197.98 46.3542 1196.28 51.85C1194.57 57.3583 1191.7 60.85 1187 61.3V66.3625C1191.7 66.8083 1194.58 70.3 1196.28 75.8125C1197.98 81.3083 1198.21 88.0458 1198.03 93.25C1197.84 98.6667 1202.06 103.663 1207.77 103.663H1266.24C1271.95 103.663 1276.17 98.6667 1275.97 93.25C1275.8 88.0458 1276.03 81.3083 1277.72 75.8125C1279.43 70.3 1282.3 66.8125 1287 66.3625V61.3C1282.3 60.85 1279.43 57.3583 1277.72 51.85C1276.03 46.35 1275.8 39.6125 1275.97 34.4083C1276.17 28.9917 1271.94 24 1266.24 24H1207.77ZM1254.79 73.0375C1254.79 80.4958 1249.23 85.0167 1240 85.0167H1224.29C1223.84 85.0167 1223.41 84.838 1223.09 84.52C1222.77 84.2019 1222.59 83.7706 1222.59 83.3208V44.3375C1222.59 43.8885 1222.77 43.4582 1223.09 43.1411C1223.41 42.8239 1223.84 42.6458 1224.29 42.6458H1239.91C1247.61 42.6458 1252.66 46.8125 1252.66 53.2167C1252.66 57.7083 1249.26 61.7292 1244.93 62.4375V62.6708C1250.83 63.3167 1254.8 67.4 1254.8 73.0375H1254.79ZM1238.29 48.0167H1229.33V60.675H1236.88C1242.71 60.675 1245.93 58.325 1245.93 54.125C1245.93 50.1917 1243.16 48.0167 1238.29 48.0167ZM1229.33 65.6958V79.6417H1238.62C1244.7 79.6417 1247.92 77.2042 1247.92 72.625C1247.92 68.0417 1244.61 65.6958 1238.23 65.6958H1229.33Z" fill="#3F6CC5" />
            <defs>
                <linearGradient id="paint0_linear_501_836" x1="9.8827" y1="23.7675" x2="57.335" y2="71.1123" gradientUnits="userSpaceOnUse">
                    <stop stop-color="#387EB8" />
                    <stop offset="1" stop-color="#366994" />
                </linearGradient>
                <linearGradient id="paint1_linear_501_836" x1="37.9554" y1="54.6091" x2="92.1703" y2="101.94" gradientUnits="userSpaceOnUse">
                    <stop stop-color="#FFE052" />
                    <stop offset="1" stop-color="#FFC331" />
                </linearGradient>
                <linearGradient id="paint2_linear_501_836" x1="420.666" y1="64.9011" x2="451.493" y2="75.3623" gradientUnits="userSpaceOnUse">
                    <stop offset="0.231" stop-color="#999875" />
                    <stop offset="0.563" stop-color="#9B9977" />
                    <stop offset="0.683" stop-color="#A09F7E" />
                    <stop offset="0.768" stop-color="#A9A889" />
                    <stop offset="0.837" stop-color="#B7B69A" />
                    <stop offset="0.896" stop-color="#C9C7B0" />
                    <stop offset="0.948" stop-color="#DEDDCB" />
                    <stop offset="0.994" stop-color="#F8F6EB" />
                    <stop offset="1" stop-color="#FBF9EF" />
                </linearGradient>
                <linearGradient id="paint3_linear_501_836" x1="431.971" y1="13.7996" x2="445.599" y2="98.9029" gradientUnits="userSpaceOnUse">
                    <stop stop-color="#48A547" />
                    <stop offset="1" stop-color="#3F9143" />
                </linearGradient>
                <linearGradient id="paint4_linear_501_836" x1="412.172" y1="63.1251" x2="448.746" y2="50.8766" gradientUnits="userSpaceOnUse">
                    <stop stop-color="#41A247" />
                    <stop offset="0.352" stop-color="#4BA74B" />
                    <stop offset="0.956" stop-color="#67B554" />
                    <stop offset="1" stop-color="#69B655" />
                </linearGradient>
                <clipPath id="clip0_501_836">
                    <rect width="100" height="112.891" fill="white" transform="translate(773 7)" />
                </clipPath>
            </defs>
        </svg>
